<svg width="324" height="99" viewBox="0 0 324 99" fill="none" xmlns="http://www.w3.org/2000/svg">
<g clip-path="url(#clip0_71_28)">
<path d="M0 0H324L289.029 64.4694C277.487 85.7479 255.222 99 231.015 99H92.9853C68.778 99 46.5131 85.7478 34.9709 64.4694L0 0Z" fill="white"/>
<path d="M139 31.8889C139 31.3879 139.198 30.9075 139.549 30.5532C139.901 30.199 140.378 30 140.875 30H182.125C182.622 30 183.099 30.199 183.451 30.5532C183.802 30.9075 184 31.3879 184 31.8889C184 32.3899 183.802 32.8703 183.451 33.2245C183.099 33.5788 182.622 33.7778 182.125 33.7778H140.875C140.378 33.7778 139.901 33.5788 139.549 33.2245C139.198 32.8703 139 32.3899 139 31.8889ZM139 47C139 46.499 139.198 46.0186 139.549 45.6644C139.901 45.3101 140.378 45.1111 140.875 45.1111H182.125C182.622 45.1111 183.099 45.3101 183.451 45.6644C183.802 46.0186 184 46.499 184 47C184 47.501 183.802 47.9814 183.451 48.3356C183.099 48.6899 182.622 48.8889 182.125 48.8889H140.875C140.378 48.8889 139.901 48.6899 139.549 48.3356C139.198 47.9814 139 47.501 139 47ZM139 62.1111C139 61.6101 139.198 61.1297 139.549 60.7755C139.901 60.4212 140.378 60.2222 140.875 60.2222H182.125C182.622 60.2222 183.099 60.4212 183.451 60.7755C183.802 61.1297 184 61.6101 184 62.1111C184 62.6121 183.802 63.0925 183.451 63.4468C183.099 63.801 182.622 64 182.125 64H140.875C140.378 64 139.901 63.801 139.549 63.4468C139.198 63.0925 139 62.6121 139 62.1111Z" fill="black" fill-opacity="0.53"/>
</g>
<defs>
<clipPath id="clip0_71_28">
<rect width="324" height="99" fill="white"/>
</clipPath>
</defs>
</svg>
